<svg xmlns="http://www.w3.org/2000/svg" width="42" height="32"  stroke-width="3" viewBox="0 0 42 32"><g fill="#828282"><path d="M35.652 14.023a.5.5 0 0 0-.303.953C39.257 16.221 41 18.078 41 21c0 2.599-2.371 4.616-3.783 5.588A.5.5 0 0 0 37 27v3.823a7.953 7.953 0 0 1-3.126-2.155.505.505 0 0 0-.468-.159c-.285.055-.576.133-.871.212-.51.137-1.036.279-1.535.279-2.568 0-4.366-.552-6.204-1.903a.5.5 0 0 0-.593.806C26.23 29.393 28.199 30 31 30c.631 0 1.223-.159 1.795-.313.178-.049.355-.097.53-.138 1.869 1.974 3.983 2.423 4.075 2.441a.495.495 0 0 0 .416-.103A.498.498 0 0 0 38 31.5v-4.239c2.582-1.841 4-4.057 4-6.261 0-3.381-2.017-5.598-6.348-6.977z"/><path d="M33 13.5C33 5.804 25.982 0 16.677 0 7.325 0 0 5.931 0 13.502c0 4.539 3.211 7.791 6 9.759v6.636a.502.502 0 0 0 .705.456c.146-.065 3.559-1.616 6.479-4.809 1.265.235 2.696.461 3.994.461C26.641 26.005 33 20.979 33 13.5zM17.177 25.005c-1.31 0-2.799-.251-4.083-.496a.507.507 0 0 0-.468.159C10.576 26.98 8.167 28.449 7 29.082V23a.5.5 0 0 0-.217-.412C4.145 20.773 1 17.725 1 13.502 1 6.491 7.886 1 16.677 1 25.413 1 32 6.374 32 13.5c0 6.882-5.957 11.505-14.823 11.505z"/><path d="M16.5 11.5c-1.103 0-2 .897-2 2s.897 2 2 2 2-.897 2-2-.897-2-2-2zm0 3a1.001 1.001 0 010-2 1.001 1.001 0 010 2zM23.5 11.5c-1.103 0-2 .897-2 2s.897 2 2 2 2-.897 2-2-.897-2-2-2zm0 3a1.001 1.001 0 010-2 1.001 1.001 0 010 2zM9.5 11.595c-1.103 0-2 .897-2 2s.897 2 2 2 2-.897 2-2-.897-2-2-2zm0 3a1.001 1.001 0 010-2 1.001 1.001 0 010 2z"/></g></svg>