<svg xmlns="http://www.w3.org/2000/svg" xmlns:xlink="http://www.w3.org/1999/xlink" width="32" height="32"><defs><linearGradient id="a"><stop offset="0" stop-color="#000092"/><stop offset="1" stop-color="#ff00f3"/></linearGradient><linearGradient id="b" x1="2" x2="22" y1="15.703" y2="15.703" gradientUnits="userSpaceOnUse" xlink:href="#a"/></defs><path style="text-indent:0;text-align:start;line-height:normal;text-transform:none;block-progression:tb;marker:none;-inkscape-font-specification:Sans" fill="url(#b)" d="M15.5 2v2.813h1V2zm-7.188.031-.812.563 1.656 2.312.813-.593zm15.594 0L22.25 4.312l.813.594 1.656-2.312zM11.625 5.72c-1.714 0-3.44.633-4.75 1.937-2.563 2.552-2.578 6.632-.125 9.25 1.41 1.562 3.019 3.061 4.531 4.563l4.375 4.375.031.031c.082.059.181.092.282.094a.5.5 0 0 0 .156 0c.01-.01.021-.02.031-.032.021.002.042.002.063 0a.5.5 0 0 0 .062-.062.494.494 0 0 0 .063-.031l4.406-4.375c1.477-1.52 3.174-3.06 4.531-4.625 2.404-2.62 2.39-6.654-.156-9.188-2.519-2.508-6.492-2.535-9.125-.218-1.264-1.113-2.793-1.72-4.375-1.72zm0 .968c1.456 0 2.912.573 4.031 1.688a.519.519 0 0 0 .688 0 5.695 5.695 0 0 1 8.062 0 5.642 5.642 0 0 1 0 8.031l-4.375 4.344L16 24.781l-4.031-4.031c-1.453-1.474-2.997-2.915-4.406-4.406-2.188-2.232-2.19-5.758.03-7.969a5.711 5.711 0 0 1 4.032-1.688zm-9.25 1.438L2 9.063l2.625 1.03L5 9.157zm27.25 0L27 9.156l.375.938L30 9.063zM6 17.438l-2.625 1.03.375.938 2.625-1.062zm20 0-.375.906 2.625 1.062.375-.937zM9.156 22.625 7.5 24.906l.813.594 1.656-2.281zm13.906 0-.812.594 1.656 2.281.813-.594zM15.5 26.594v2.812h1v-2.812z" color="#000" font-family="Sans" font-weight="400" overflow="visible"/></svg>