<svg xmlns="http://www.w3.org/2000/svg" width="100" height="100" viewBox="0 0 100 100"><path d="M86.4 36.6l-28-28C57.1 7.3 55 8.2 55 10v13.6c-1.4-.2-3.1-.3-4.8-.3C29.7 23.3 13 39.7 13 59.9c0 13.5 7.5 25.5 20.1 31.9 2 1 3.8-1.4 2.4-3.1-3.6-4.3-5.4-8.9-5.4-14 0-12.6 10.4-22.9 23.2-22.9.6 0 1.2 0 1.7.1V66c0 1.8 2.1 2.7 3.4 1.4l28-28c.8-.8.8-2 0-2.8zM59 61.1V50c0-1-.7-1.8-1.7-2-1.2-.2-2.6-.3-4-.3-15 0-27.2 12.1-27.2 26.9 0 3 .5 5.9 1.6 8.6C20.9 77.3 17 69 17 59.9 17 42 31.9 27.4 50.2 27.4c2.4 0 4.8.4 6.4.7 1.2.2 2.4-.7 2.4-2V14.8L82.2 38 59 61.1z"/><path fill="#00F" d="M524-510v1684h-1784V-510H524m8-8h-1800v1700H532V-518z"/></svg>