<svg xmlns="http://www.w3.org/2000/svg" xmlns:xlink="http://www.w3.org/1999/xlink" enable-background="new 0 0 1000 1000" viewBox="0 0 1000 1000"><linearGradient id="a" x1="505.454" x2="505.454" y1="697.36" y2="410.08" gradientUnits="userSpaceOnUse"><stop offset="0" stop-color="#fca768"/><stop offset="1" stop-color="#ffd9a9"/></linearGradient><rect width="213.26" height="201.17" x="398.83" y="509.81" fill="url(#a)"/><linearGradient id="b" x1="496.59" x2="513.87" y1="122.462" y2="649.502" gradientUnits="userSpaceOnUse"><stop offset="0" stop-color="#fca768"/><stop offset="1" stop-color="#ffd9a9"/></linearGradient><path fill="url(#b)" d="M665.06,216.19C660.48,114.16,539.41,99.88,508.37,97.92c-4.58-0.29-7.22-0.33-7.22-0.33h-0.16
		c0,0-158.65,1.5-163.88,118.59c-2.34,52.08-0.07,103.53,4.06,146.81c3,32.49,7.08,60.32,10.97,80.23
		c2.5,12.97,4.94,22.58,6.95,27.93c3.39,9.16,10.15,20.37,18.62,31.87c17.37,23.72,41.92,48.69,59.32,59.05
		c14.04,8.34,47.62,14.7,63.97,13.85h0.16c2.14,0.1,4.58,0.1,7.22-0.03c17.56-0.82,44.55-6.55,56.75-13.82
		c17.37-10.36,41.91-35.33,59.32-59.05c8.47-11.5,15.19-22.71,18.62-31.87c2.01-5.34,4.45-14.96,6.95-27.93
		c3.86-19.91,7.94-47.74,11-80.23C665.1,319.75,667.41,268.26,665.06,216.19z"/><linearGradient id="c" x1="101.056" x2="910.2" y1="819.185" y2="819.185" gradientUnits="userSpaceOnUse"><stop offset="0" stop-color="#fb5f51"/><stop offset="1" stop-color="#ff303d"/></linearGradient><path fill="url(#c)" d="M909.1,1084.77c1.1-32.04,2.21-97.6-1.12-202.93c-5.03-158.07-35.54-203.68-78.94-244.91
			c-40.47-38.47-185.26-64.09-218.58-83.33c0,0-8.91,71.66-106.06,69.43c-97.15,2.23-106.05-69.43-106.05-69.43
			c-33.32,19.24-178.11,44.86-218.58,83.33c-43.39,41.23-71.47,86.84-76.49,244.91c-3.33,105.33-2.22,170.89-1.11,202.93H909.1z"/><defs><rect id="d" width="486" height="594" x="504" y="513"/></defs><clipPath id="f"><use overflow="visible" xlink:href="#d"/></clipPath><linearGradient id="e" x1="513.004" x2="504.364" y1="656.236" y2="1066.636" gradientUnits="userSpaceOnUse"><stop offset="0" stop-color="#23ffa5"/><stop offset="1" stop-color="#00bee9"/></linearGradient><path fill="url(#e)" d="M909.1,1084.77c1.1-32.04,2.21-97.6-1.12-202.93
				c-5.03-158.07-35.54-203.68-78.94-244.91c-40.47-38.47-185.26-64.09-218.58-83.33c0,0-8.91,71.66-106.06,69.43
				c-97.15,2.23-106.05-69.43-106.05-69.43c-33.32,19.24-178.11,44.86-218.58,83.33c-43.39,41.23-71.47,86.84-76.49,244.91
				c-3.33,105.33-2.22,170.89-1.11,202.93H909.1z" clip-path="url(#f)"/><linearGradient id="g" x1="522" x2="712.924" y1="654.435" y2="654.435" gradientUnits="userSpaceOnUse"><stop offset="0" stop-color="#fb5f51"/><stop offset="1" stop-color="#ff303d"/></linearGradient><path fill="url(#g)" d="M711,585c-4.14-3.62-53.98-26.69-64.49-26.99c-13.31-0.38-15.91,18.09-21.8,26.24
			c-9.24,12.8-26.29,21.46-40.03,28.35c-24.28,12.18-70.43,23.86-61.58,58.98c4.1,16.26,9.64,32.14,16.39,47.48
			c3.49,7.95,10.06,29.17,19.56,31.7c5.44,1.38,12.64-9.05,16.12-12.26c7.97-7.33,16.72-13.99,25.18-20.74
			C608.72,711.08,729.5,601.17,711,585z"/><linearGradient id="h" x1="284.032" x2="484.618" y1="656.125" y2="656.125" gradientUnits="userSpaceOnUse"><stop offset="0" stop-color="#23ffa5"/><stop offset="1" stop-color="#00bee9"/></linearGradient><path fill="url(#h)" d="M482.54,652.24c-6.76-15.97-25.74-23.61-40.38-30.36c-17.5-8.07-40.72-15.58-54.47-29.69
			c-8.48-8.7-11.39-30.08-25.23-32.32c-13.21-2.13-60.48,26.27-74.46,34.12c-15.26,8.58,17.71,41.16,27.54,51.4
			c12.55,13.08,27.36,23.64,41.26,35.17c29.63,24.57,60.16,48.12,90.53,71.71c6.01,4.66,33.51-69.67,35.29-76.1
			C485.41,666.07,485.18,658.48,482.54,652.24z"/><linearGradient id="i" x1="271.57" x2="669.96" y1="211.5" y2="211.5" gradientUnits="userSpaceOnUse"><stop offset="0"/><stop offset="1" stop-color="#111"/></linearGradient><path fill="url(#i)" d="M629.45,135.04c-19.52-11.56-52.4-44.22-77.76-41.87c-7.91,0.73-19.15,3.79-21.63,8.5
			l-2.38,0.65c-8.71-22.38-26.6-30.38-54.78-30.32c-25.67,0.06-53.88,7.54-75.69,21.14c-21.75,13.53-33.67,35.97-61.79,38.51
			c-19.37,1.75-28.33-5.94-40.29-19.55c5.78,14.75,8.41,25.74,24.28,34.84c-17.85-0.22-33.18-0.56-47.02-11.22
			c-6.77,31.37,28.85,44.48,63.95,47.81C300.82,221.2,327.05,308.98,342,351c2.19-34.11-3.21-72.16-0.12-105.87
			c2.22-24.21,7.48-46.99,27.81-61.26c7.88-0.57,14.77-1.64,19.81-3.05c23.88-6.61,46.53-11.36,71.06-15.6
			c20.02-3.48,55.49-5.74,67.97-23.99l0.68,0.34c-2.78,4.52-7.13,8.53-13.44,12.18l8.25,3.25c23.02,7.71,40.2,0.14,61.24,16.76
			c18.97,14.97,30.89,32.92,38.68,55.07c6.67,19.05,7.91,40.29,12.39,59.65c2.84,12.21,9.55,32.38,19.65,44.05
			c0.28,0.31,0.56,0.62,0.8,0.9c1.45-0.11,7.82-0.29,9.24-0.43C673.36,311.92,675,162,629.45,135.04z"/><linearGradient id="j" x1="322.659" x2="693" y1="522.003" y2="522.003" gradientUnits="userSpaceOnUse"><stop offset="0"/><stop offset="1" stop-color="#111"/></linearGradient><path fill="url(#j)" d="M693,405.2c-4.94,2.43-9.89,4.01-14.83,4.89c-5.07,0.93-10.18,1.13-15.4,0.8
			c2.14-0.15,4.27-0.41,6.4-0.8C665.37,387.4,666,355.04,666,333h-9c-2.23,16.62-12.61,37.3-24.6,44.76
			c-8.36,5.2-21.35,11.36-33.35,12.17c-0.43-0.29-0.87-0.57-1.31-0.86c0,0-0.03,0-0.06-0.03c-5.28-3.59-10.38-7.37-15.97-10.6
			c-15.2-8.81-29.97-18.06-48.44-15.71c-7.94,1.02-22.86,6.78-23.94,14.83h-3c-1.08-8.05-16.01-13.82-23.94-14.83
			c-18.48-2.35-33.24,6.89-48.45,15.71c-5.59,3.22-10.69,7.01-15.97,10.6c-0.03,0.03-0.06,0.03-0.06,0.03
			c-14.15,3.81-32.81-4.55-43.66-11.3c-11.99-7.46-30.12-28.09-32.35-44.7h-0.09c0,22.04-0.52,54.34-4.32,77.03
			c-4.95-0.88-9.89-2.46-14.83-4.89c-0.12,6.36,5.99,10.91,13.13,13.99c-4.97,29.39,4.39,58.49,9.61,87.34
			c1.82,10.06,10.38,46.99-11.8,44.08c5.16,3.64,19.56,7.6,25.8,5.06c2.29-0.96,11.09,26.19,11.46,29.44
			c1.15,10.03,4.02,18.03,10.04,26.73c12.54,18.08,32.41,64.04,54.34,71.47c24.04,8.14,43.24,28.09,68.76,27.69
			c18.68-0.29,52.38-19.55,76.42-27.69c21.94-7.43,41.8-53.38,54.34-71.47c6.02-8.7,8.9-16.7,10.04-26.73
			c0.37-3.25,9.18-30.4,11.46-29.44c6.24,2.54,20.64-1.41,25.79-5.06c-22.15,2.91-13.62-34.02-11.8-44.08
			c5.22-28.85,14.59-57.95,9.61-87.34C687.01,416.1,693.12,411.56,693,405.2z M542.57,423.28c11.77,7.18-14.15,6.87-32.01,0.59
			c-0.43-0.14-0.83-0.28-1.24-0.39h-3c-17.58,5.03-45.01,6.98-33.24-0.2c-13.6,7.63-33.99,0.57-46.78-5.65
			c6.52-3.47,12.88-7.26,19.03-10.23c12.76-6.19,27.46-12.09,41.68-12.88c6.83-0.39,13.59,1.53,19.31-0.71h3
			c5.72,2.23,12.48,0.31,19.31,0.71c14.21,0.79,28.92,6.7,41.68,12.88c6.15,2.97,12.51,6.76,19.03,10.23
			C576.56,423.85,556.16,430.91,542.57,423.28z"/><path fill="#191516" d="M513.17 748.35c-2.44 10.31-15.82 10.3-18.25-.01-.2-.86-.2-1.76 0-2.62 2.44-10.31 15.82-10.3 18.25.01C513.37 746.59 513.37 747.5 513.17 748.35zM513.17 821.62c-2.44 10.31-15.82 10.3-18.25-.01-.2-.86-.2-1.76 0-2.62 2.44-10.31 15.82-10.3 18.25.01C513.37 819.86 513.37 820.76 513.17 821.62zM513.17 894.88c-2.44 10.31-15.82 10.3-18.25-.01-.2-.86-.2-1.76 0-2.62 2.44-10.31 15.82-10.3 18.25.01C513.37 893.12 513.37 894.03 513.17 894.88zM513.17 968.15c-2.44 10.31-15.82 10.3-18.25-.01-.2-.86-.2-1.76 0-2.62 2.44-10.31 15.82-10.3 18.25.01C513.37 966.39 513.37 967.29 513.17 968.15z"/></svg>