<svg xmlns="http://www.w3.org/2000/svg" data-name="Layer 1" viewBox="0 0 32 32"><circle cx="16" cy="16" r="11.5" fill="#d9d8da"/><path fill="none" stroke="#000" stroke-linecap="round" stroke-linejoin="round" d="M5.9 10.5a11.554 11.554 0 0 1 4.6-4.6M10.518 26.112a11.553 11.553 0 0 1-4.63-4.63M26.112 21.482A11.553 11.553 0 0 1 21.5 26.1M21.658 5.986A11.554 11.554 0 0 1 26.1 10.5"/><path fill="#55bb8c" d="M10.5,24.94V28.5a3,3,0,0,0,3,3h5a3,3,0,0,0,3-3V24.94"/><path fill="#55bb8c" d="M10.5 26.5V24A1.5 1.5 0 0 1 12 22.5h0A1.5 1.5 0 0 1 13.5 24v2.5M21.5 24v2.5h-3V24a1.5 1.5 0 0 1 3 0z"/><path fill="#ffd9aa" d="M21.5 24v.5h-3V24a1.5 1.5 0 0 1 3 0zM13.5 24v.5h-3V24a1.5 1.5 0 0 1 3 0z"/><rect width="4" height="3" x="10.5" y="14.5" fill="#fff"/><rect width="4" height="3" x="17.5" y="14.5" fill="#fff"/><circle cx="16" cy="27" r="2.5" fill="#57565c"/><path fill="#ed456a" d="M21.5,7.06V3.5a3,3,0,0,0-3-3h-5a3,3,0,0,0-3,3V7.06"/><path fill="#ed456a" d="M21.5 5.5V8A1.5 1.5 0 0 1 20 9.5h0A1.5 1.5 0 0 1 18.5 8V5.5M10.5 8V5.5h3V8a1.5 1.5 0 0 1-3 0z"/><path fill="#ffd9aa" d="M10.5 8V7.5h3V8a1.5 1.5 0 0 1-3 0zM18.5 8V7.5h3V8a1.5 1.5 0 0 1-3 0z"/><circle cx="16" cy="5" r="2.5" fill="#57565c"/><path fill="#fbde53" d="M7.06,10.5H3.5a3,3,0,0,0-3,3v5a3,3,0,0,0,3,3H7.06"/><path fill="#fbde53" d="M5.5 10.5H8A1.5 1.5 0 0 1 9.5 12h0A1.5 1.5 0 0 1 8 13.5H5.5M8 21.5H5.5v-3H8a1.5 1.5 0 1 1 0 3z"/><path fill="#ffd9aa" d="M8 21.5H7.5v-3H8a1.5 1.5 0 1 1 0 3zM8 13.5H7.5v-3H8a1.5 1.5 0 1 1 0 3z"/><circle cx="5" cy="16" r="2.5" fill="#57565c"/><path fill="#82c8ec" d="M24.94,21.5H28.5a3,3,0,0,0,3-3v-5a3,3,0,0,0-3-3H24.94"/><path fill="#82c8ec" d="M26.5 21.5H24A1.5 1.5 0 0 1 22.5 20h0A1.5 1.5 0 0 1 24 18.5h2.5M24 10.5h2.5v3H24a1.5 1.5 0 0 1 0-3z"/><path fill="#ffd9aa" d="M24 10.5h.5v3H24a1.5 1.5 0 0 1 0-3zM24 18.5h.5v3H24a1.5 1.5 0 0 1 0-3z"/><circle cx="27" cy="16" r="2.5" fill="#57565c"/><path d="M22,14.5a.5.5,0,0,0-.5-.5h-4a.5.5,0,0,0-.5.5v3a.5.5,0,0,0,.5.5h4a.5.5,0,0,0,.5-.5ZM21,17H18V15h3Zm-6.5-3h-4a.5.5,0,0,0-.5.5v3a.5.5,0,0,0,.5.5h4a.5.5,0,0,0,.5-.5v-3A.5.5,0,0,0,14.5,14ZM14,17H11V15h3Zm14.5-7H26.374A12,12,0,0,0,22,5.614V3.5A3.5,3.5,0,0,0,18.5,0h-5A3.5,3.5,0,0,0,10,3.5V5.627A11.971,11.971,0,0,0,5.627,10H3.5A3.5,3.5,0,0,0,0,13.5v5A3.5,3.5,0,0,0,3.5,22H5.628A11.974,11.974,0,0,0,10,26.372V28.5A3.5,3.5,0,0,0,13.5,32h5A3.5,3.5,0,0,0,22,28.5V26.373A11.986,11.986,0,0,0,26.373,22H28.5A3.5,3.5,0,0,0,32,18.5v-5A3.5,3.5,0,0,0,28.5,10ZM11,3.5A2.5,2.5,0,0,1,13.5,1h5A2.5,2.5,0,0,1,21,3.5V7H19V5.5a.493.493,0,0,0-.034-.167A2.94,2.94,0,0,0,19,5a3,3,0,0,0-6,0,2.94,2.94,0,0,0,.034.333A.493.493,0,0,0,13,5.5V7H11ZM21,8a1,1,0,0,1-2,0ZM18,5a2,2,0,1,1-2-2A2,2,0,0,1,18,5ZM13,8a1,1,0,0,1-2,0ZM5.79,21H3.5A2.5,2.5,0,0,1,1,18.5v-5A2.5,2.5,0,0,1,3.5,11H7v2H5.5a.493.493,0,0,0-.167.034A2.94,2.94,0,0,0,5,13a3,3,0,0,0,0,6,2.94,2.94,0,0,0,.333-.034A.493.493,0,0,0,5.5,19H7v2H6A.491.491,0,0,0,5.79,21ZM7,16a2,2,0,1,1-2-2A2,2,0,0,1,7,16ZM21,28.5A2.5,2.5,0,0,1,18.5,31h-5A2.5,2.5,0,0,1,11,28.5V26.214a.492.492,0,0,0,0-.224V25h2v1.5a.493.493,0,0,0,.034.167A2.94,2.94,0,0,0,13,27a3,3,0,0,0,6,0,2.94,2.94,0,0,0-.034-.333A.493.493,0,0,0,19,26.5V25h2ZM11,24a1,1,0,0,1,2,0Zm3,3a2,2,0,1,1,2,2A2,2,0,0,1,14,27Zm5-3a1,1,0,0,1,2,0Zm3,1.188V24a2,2,0,0,0-4,0v.78a2.953,2.953,0,0,0-4,0V24a2,2,0,0,0-4,0v1.188A10.96,10.96,0,0,1,6.812,22H8a2,2,0,0,0,0-4H7.22a2.953,2.953,0,0,0,0-4H8a2,2,0,0,0,0-4H6.812A10.974,10.974,0,0,1,10,6.811V8a2,2,0,0,0,4,0V7.22a2.953,2.953,0,0,0,4,0V8a2,2,0,0,0,4,0V6.811A10.98,10.98,0,0,1,25.19,10H24a2,2,0,0,0,0,4h.78a2.953,2.953,0,0,0,0,4H24a2,2,0,0,0,0,4h1.188A10.974,10.974,0,0,1,22,25.188ZM8,21V19a1,1,0,0,1,0,2Zm0-8V11a1,1,0,0,1,0,2Zm16-2v2a1,1,0,0,1,0-2Zm0,8v2a1,1,0,0,1,0-2Zm7-.5A2.5,2.5,0,0,1,28.5,21H26.214a.5.5,0,0,0-.22,0H25V19h1.5a.493.493,0,0,0,.167-.034A2.94,2.94,0,0,0,27,19a3,3,0,0,0,0-6,2.94,2.94,0,0,0-.333.034A.493.493,0,0,0,26.5,13H25V11h3.5A2.5,2.5,0,0,1,31,13.5ZM25,16a2,2,0,1,1,2,2A2,2,0,0,1,25,16Z"/></svg>